<?xml version="1.0" encoding="UTF-8" standalone="no"?>
<svg
   xmlns:dc="http://purl.org/dc/elements/1.1/"
   xmlns:cc="http://creativecommons.org/ns#"
   xmlns:rdf="http://www.w3.org/1999/02/22-rdf-syntax-ns#"
   xmlns:svg="http://www.w3.org/2000/svg"
   xmlns="http://www.w3.org/2000/svg"
   xmlns:xlink="http://www.w3.org/1999/xlink"
   xmlns:sodipodi="http://sodipodi.sourceforge.net/DTD/sodipodi-0.dtd"
   xmlns:inkscape="http://www.inkscape.org/namespaces/inkscape"
   id="Layer_1"
   data-name="Layer 1"
   viewBox="0 0 155.11775 70.139994"
   version="1.1"
   sodipodi:docname="qm_logo_white.svg"
   width="155.11775"
   height="70.139999"
   inkscape:version="1.0 (4035a4fb49, 2020-05-01)">
  <metadata
     id="metadata166">
    <rdf:RDF>
      <cc:Work
         rdf:about="">
        <dc:format>image/svg+xml</dc:format>
        <dc:type
           rdf:resource="http://purl.org/dc/dcmitype/StillImage" />
        <dc:title>2019-03-QUA-4284-I-Logo_R1</dc:title>
      </cc:Work>
    </rdf:RDF>
  </metadata>
  <sodipodi:namedview
     inkscape:pagecheckerboard="true"
     inkscape:document-rotation="0"
     pagecolor="#ffffff"
     bordercolor="#666666"
     borderopacity="1"
     objecttolerance="10"
     gridtolerance="10"
     guidetolerance="10"
     inkscape:pageopacity="0"
     inkscape:pageshadow="2"
     inkscape:window-width="1920"
     inkscape:window-height="986"
     id="namedview164"
     showgrid="false"
     fit-margin-top="0"
     fit-margin-left="0"
     fit-margin-right="0"
     fit-margin-bottom="0"
     inkscape:zoom="6.7353595"
     inkscape:cx="77.585"
     inkscape:cy="47.628214"
     inkscape:window-x="1540"
     inkscape:window-y="1659"
     inkscape:window-maximized="1"
     inkscape:current-layer="Layer_1" />
  <defs
     id="defs113">
    <style
       id="style89">.cls-1{fill:#fff;}.cls-2{fill:url(#linear-gradient);}.cls-3{fill:url(#linear-gradient-2);}.cls-4{fill:url(#linear-gradient-3);}.cls-5{fill:url(#linear-gradient-4);}.cls-6{fill:url(#linear-gradient-5);}.cls-7{fill:url(#linear-gradient-6);}</style>
    <linearGradient
       id="linear-gradient"
       x1="89.690002"
       y1="50.91"
       x2="70.599998"
       y2="62.91"
       gradientUnits="userSpaceOnUse"
       gradientTransform="translate(-28.2,0.00999814)">
      <stop
         offset="0"
         id="stop91" />
      <stop
         offset="1"
         stop-color="#fff"
         stop-opacity="0"
         id="stop93" />
    </linearGradient>
    <linearGradient
       id="linear-gradient-2"
       x1="81.510002"
       y1="53.200001"
       x2="81.150002"
       y2="53.41"
       gradientUnits="userSpaceOnUse"
       gradientTransform="translate(-28.2,0.00999814)">
      <stop
         offset="0"
         stop-color="#4d4e4e"
         id="stop96" />
      <stop
         offset="1"
         stop-color="gray"
         stop-opacity="0"
         id="stop98" />
    </linearGradient>
    <linearGradient
       id="linear-gradient-3"
       x1="78.440002"
       y1="36.16"
       x2="183.32001"
       y2="36.16"
       gradientUnits="userSpaceOnUse"
       gradientTransform="translate(-28.2,0.00999814)">
      <stop
         offset="0"
         stop-color="#155488"
         id="stop101" />
      <stop
         offset="1"
         stop-color="#3a7fc0"
         id="stop103" />
    </linearGradient>
    <linearGradient
       id="linear-gradient-4"
       x1="156.57001"
       y1="10.46"
       x2="147.75"
       y2="30.02"
       gradientUnits="userSpaceOnUse">
      <stop
         offset="0"
         stop-color="#0f3e5e"
         id="stop106" />
      <stop
         offset="1"
         stop-color="#3a7fc0"
         stop-opacity="0"
         id="stop108" />
    </linearGradient>
    <linearGradient
       id="linear-gradient-5"
       x1="127.82"
       y1="7.9499998"
       x2="118.72"
       y2="28.129999"
       xlink:href="#linear-gradient-4"
       gradientTransform="translate(-28.2,0.00999814)" />
    <linearGradient
       id="linear-gradient-6"
       x1="146.10001"
       y1="36.599998"
       x2="132.35001"
       y2="29.120001"
       xlink:href="#linear-gradient-4"
       gradientTransform="translate(-28.2,0.00999814)" />
    <linearGradient
       inkscape:collect="always"
       xlink:href="#linear-gradient-4"
       id="linearGradient168"
       gradientUnits="userSpaceOnUse"
       x1="156.57001"
       y1="10.46"
       x2="147.75"
       y2="30.02"
       gradientTransform="translate(-28.2,0.00999814)" />
  </defs>
  <title
     id="title115">2019-03-QUA-4284-I-Logo_R1</title>
  <path
     class="cls-1"
     d="m 35.08,70.139999 a 35.07,35.07 0 1 1 35.06,-35.07 35.11,35.11 0 0 1 -35.06,35.07 z m 0,-60.7400008 A 25.68,25.68 0 1 0 60.8,35.069999 25.71,25.71 0 0 0 35.08,9.3999982 Z"
     id="path147" />
  <path
     class="cls-2"
     d="m 60.34,59.359999 a 35,35 0 0 1 -17.36,9.88 l -12.06,-2.41 1,-6.27 a 25.75,25.75 0 0 0 21.37,-7.39 l 0.11,-0.16 z"
     id="path149"
     style="fill:url(#linear-gradient)" />
  <path
     class="cls-3"
     d="m 53.28,53.169999 -0.3,0.29 z"
     id="path151"
     style="fill:url(#linear-gradient-2)" />
  <path
     class="cls-4"
     d="m 151.8,68.009999 a 5.48,5.48 0 0 1 -1.81,0.32 5.15,5.15 0 0 1 -4.86,-3.32 l -16.25,-43.5 -8.08,23.16 a 6.39,6.39 0 0 1 -11.57,0.42 l -0.15,-0.28 -0.52,-1.43 -0.39,-1 -1,-2.69 -0.5,-1.37 -2.43,-6.59 -0.17,-0.48 c -0.07,-0.17 -0.13,-0.35 -0.2,-0.54 v 0 l -3.970004,-10.77 v 0 l -0.5,1.07 -5,10.81 -13.86,30 -0.1,0.19 a 9.57,9.57 0 0 1 -12.859996,3.73 l -0.57,-0.3 -6.62,-6 v 0 l -6.99,-6.43 v 0 l -3.16,-2.87 a 5.25,5.25 0 0 0 6.75,-7.81 l 2.07,1.88 7.31,6.65 5.519996,5 16.23,-35.08 6.11,-13.2000008 0.1,-0.19 a 7.81,7.81 0 0 1 0.55,-0.82 v 0 a 6.84,6.84 0 0 1 11.470004,1.14 l 0.15,0.28 8.3,22.5600008 7.7,-21.9400008 a 6.81,6.81 0 0 1 6.3,-4.16 v 0 a 6.81,6.81 0 0 1 6.28,4.2 l 0.07,0.18 19.65,52.5600008 a 5.18,5.18 0 0 1 -3,6.62 z"
     id="path153"
     style="fill:url(#linear-gradient-3)" />
  <path
     class="cls-5"
     d="m 125.13,11.579999 c 0.18,0.34 0.34,0.68 0.49,1 1.21,2.9 2.19,5.94 3.26,8.9 l -4.32,12.32 -3.34,1.24 -4.13,-11.03 c 1.8,-5.13 3.64,-10.24 5.39,-15.3900008 a 7.16,7.16 0 0 1 2.65,2.9600008 z"
     id="path155"
     style="fill:url(#linearGradient168)" />
  <path
     class="cls-6"
     d="m 99.879996,20.009999 -0.48,1 -5,10.8 v 0 l -3.42,0.92 -3.06,-11.43 0.21,-0.49 6.11,-13.2000008 0.1,-0.19 a 7.81,7.81 0 0 1 0.55,-0.82 v 0 a 6.53,6.53 0 0 1 2.21,3.11 c 0.15,0.3500008 0.27,0.7100008 0.39,1.0700008 0.92,3.04 1.6,6.15 2.39,9.23 z"
     id="path157"
     style="fill:url(#linear-gradient-5)" />
  <path
     class="cls-7"
     d="m 114.8,30.549999 v 0 c -1.8,5.13 -3.85,9.38 -5.6,14.53 l -0.15,-0.28 -0.52,-1.43 a 7.58,7.58 0 0 0 -0.39,-1 l -1,-2.69 c -0.17,-0.53 -0.32,-1 -0.37,-1.07 l -0.13,-0.3 -2.43,-6.59 -0.17,-0.48 c -0.07,-0.17 -0.13,-0.35 -0.2,-0.54 v 0 l 3.48,-9.91 3.41,-1.24 z"
     id="path159"
     style="fill:url(#linear-gradient-6)" />
  <path
     class="cls-1"
     d="m 58.15,45.649999 a 5.25,5.25 0 1 1 -10.49,0 3.93,3.93 0 0 1 0,-0.49 v 0 a 5.07,5.07 0 0 1 0.09,-0.54 5.11,5.11 0 0 1 6.11,-4.07 l 0.32,0.07 v 0 c 0.18,0 0.37,0.12 0.55,0.19 a 5.4,5.4 0 0 1 2.22,1.6 5.25,5.25 0 0 1 1.2,3.24 z"
     id="path161" />
</svg>
